<svg width="17" height="17" viewBox="0 0 17 17" fill="none" xmlns="http://www.w3.org/2000/svg">
<g clip-path="url(#clip0_295_341)">
<path d="M8.4166 0.000183105C3.76774 0.000183105 0 3.76792 0 8.41678C0 13.0656 3.76774 16.8334 8.4166 16.8334C13.0654 16.8334 16.8332 13.0656 16.8332 8.41678C16.8332 3.76792 13.0654 0.000183105 8.4166 0.000183105ZM10.2742 6.9899L10.1788 8.2491H8.88674V12.6218H7.25603V8.2491H6.38478V6.9899H7.25603V6.14496C7.25603 5.77344 7.26589 5.19809 7.53548 4.83973C7.82152 4.46164 8.21276 4.20519 8.88674 4.20519C9.98484 4.20519 10.4451 4.363 10.4451 4.363L10.2281 5.6518C10.2281 5.6518 9.86649 5.54659 9.52785 5.54659C9.18921 5.54659 8.88674 5.66823 8.88674 6.00687V6.9899H10.2742Z" fill="white"/>
</g>
<defs>
<clipPath id="clip0_295_341">
<rect width="16.8332" height="16.8332" fill="white"/>
</clipPath>
</defs>
</svg>
