<svg width="18" height="17" viewBox="0 0 18 17" fill="none" xmlns="http://www.w3.org/2000/svg">
<g clip-path="url(#clip0_295_356)">
<path d="M8.91562 0C4.26677 0 0.499023 3.76774 0.499023 8.4166C0.499023 13.0654 4.26677 16.8332 8.91562 16.8332C13.5645 16.8332 17.3322 13.0654 17.3322 8.4166C17.3322 3.76774 13.5645 0 8.91562 0ZM12.2757 7.10808C12.279 7.18041 12.279 7.25603 12.279 7.33164C12.279 9.61662 10.5398 12.2534 7.35723 12.2534C6.38078 12.2534 5.47008 11.9673 4.70732 11.4775C4.84212 11.4939 4.9802 11.5005 5.12158 11.5005C5.93036 11.5005 6.67667 11.2243 7.26846 10.7607C6.51229 10.7476 5.87118 10.2479 5.65419 9.56073C5.7594 9.58045 5.86789 9.59032 5.97967 9.59032C6.13748 9.59032 6.29201 9.57059 6.43667 9.52785C5.64433 9.37004 5.04925 8.66975 5.04925 7.83138V7.81165C5.28267 7.93987 5.54898 8.01878 5.83173 8.02864C5.36816 7.7196 5.0624 7.18698 5.0624 6.58862C5.0624 6.27299 5.14788 5.97381 5.29583 5.71737C6.15064 6.76615 7.42299 7.45329 8.85973 7.52562C8.83014 7.40069 8.8137 7.26918 8.8137 7.13109C8.8137 6.17765 9.5896 5.40174 10.543 5.40174C11.0395 5.40174 11.4899 5.61216 11.8055 5.94751C12.2001 5.8686 12.5683 5.72723 12.9036 5.52668C12.7754 5.93107 12.4992 6.26971 12.1442 6.48341C12.4927 6.44067 12.828 6.34861 13.1371 6.21053C12.9069 6.55903 12.6143 6.8615 12.2757 7.10808Z" fill="white"/>
</g>
<defs>
<clipPath id="clip0_295_356">
<rect width="16.8332" height="16.8332" fill="white" transform="translate(0.499023)"/>
</clipPath>
</defs>
</svg>
