<svg width="18" height="17" viewBox="0 0 18 17" fill="none" xmlns="http://www.w3.org/2000/svg">
<g clip-path="url(#clip0_295_344)">
<path d="M9.08265 9.89608C9.89801 9.89608 10.5654 9.23196 10.5654 8.41331C10.5654 8.09111 10.4602 7.79193 10.286 7.54864C10.0164 7.17712 9.5791 6.93054 9.08594 6.93054C8.59278 6.93054 8.15551 7.17383 7.88591 7.54864C7.71166 7.79193 7.60646 8.09111 7.60646 8.41331C7.60317 9.23196 8.26729 9.89608 9.08265 9.89608Z" fill="white"/>
<path d="M12.3177 6.60505V5.36229V5.17818H12.1336L10.8909 5.18146L10.8974 6.60834L12.3177 6.60505Z" fill="white"/>
<path d="M11.3841 8.4166C11.3841 9.68566 10.3517 10.718 9.08265 10.718C7.81359 10.718 6.78124 9.68566 6.78124 8.4166C6.78124 8.11084 6.84371 7.81823 6.9522 7.55193H5.69629V10.9975C5.69629 11.4413 6.05794 11.803 6.50178 11.803H11.6635C12.1074 11.803 12.469 11.4413 12.469 10.9975V7.55193H11.2131C11.3249 7.81823 11.3841 8.11084 11.3841 8.4166Z" fill="white"/>
<path d="M9.08261 0C4.43376 0 0.666016 3.76774 0.666016 8.4166C0.666016 13.0654 4.43376 16.8332 9.08261 16.8332C13.7315 16.8332 17.4992 13.0654 17.4992 8.4166C17.4992 3.76774 13.7315 0 9.08261 0ZM13.2909 7.55192V10.9975C13.2909 11.895 12.561 12.6249 11.6635 12.6249H6.50174C5.60419 12.6249 4.87431 11.895 4.87431 10.9975V7.55192V5.83244C4.87431 4.93489 5.60419 4.20501 6.50174 4.20501H11.6635C12.561 4.20501 13.2909 4.93489 13.2909 5.83244V7.55192Z" fill="white"/>
</g>
<defs>
<clipPath id="clip0_295_344">
<rect width="16.8332" height="16.8332" fill="white" transform="translate(0.666016)"/>
</clipPath>
</defs>
</svg>
