<svg width="18" height="17" viewBox="0 0 18 17" fill="none" xmlns="http://www.w3.org/2000/svg">
<g clip-path="url(#clip0_295_351)">
<path d="M8.12842 10.0375L10.8835 8.41989L8.12842 6.80232V10.0375Z" fill="white"/>
<path d="M9.2496 0C4.60075 0 0.833008 3.76774 0.833008 8.4166C0.833008 13.0654 4.60075 16.8332 9.2496 16.8332C13.8985 16.8332 17.6662 13.0654 17.6662 8.4166C17.6662 3.76774 13.8985 0 9.2496 0ZM13.4579 9.92238C13.4579 11.3723 12.008 11.3723 12.008 11.3723H6.4912C5.04131 11.3723 5.04131 9.92238 5.04131 9.92238V6.9141C5.04131 5.46421 6.4912 5.46421 6.4912 5.46421H12.008C13.4579 5.46421 13.4579 6.9141 13.4579 6.9141V9.92238Z" fill="white"/>
</g>
<defs>
<clipPath id="clip0_295_351">
<rect width="16.8332" height="16.8332" fill="white" transform="translate(0.833008)"/>
</clipPath>
</defs>
</svg>
