<svg width="16" height="16" viewBox="0 0 16 16" fill="none" xmlns="http://www.w3.org/2000/svg">
<g clip-path="url(#clip0_295_273)">
<path d="M13.2881 2.68139C11.9431 1.33639 10.0851 0.504395 8.0326 0.504395C3.9281 0.504395 0.600098 3.83189 0.600098 7.9369C0.600098 9.3029 0.968598 10.5824 1.6111 11.6824L1.5921 11.6474L0.537598 15.4984L4.4771 14.4649C5.5026 15.0344 6.7261 15.3694 8.0281 15.3694H8.0311C12.1356 15.3679 15.4621 12.0399 15.4621 7.9354C15.4621 5.8839 14.6311 4.0269 13.2876 2.68189L13.2881 2.68139ZM8.0311 14.1139H8.0286C6.8691 14.1139 5.7836 13.7939 4.8571 13.2374L4.8851 13.2529L4.6596 13.1194L2.3221 13.7329L2.9456 11.4534L2.7986 11.2199C2.2061 10.2889 1.8541 9.1544 1.8541 7.9374C1.8541 4.5264 4.6196 1.76089 8.0306 1.76089C11.4416 1.76089 14.2071 4.5264 14.2071 7.9374C14.2071 11.3484 11.4426 14.1139 8.0311 14.1139ZM11.4191 9.48839C11.2336 9.3954 10.3206 8.94689 10.1506 8.88439C9.9801 8.82239 9.8561 8.79189 9.7321 8.97789C9.6091 9.16339 9.2531 9.5814 9.1446 9.70539C9.0366 9.8299 8.9276 9.84489 8.7421 9.75239C8.1671 9.51939 7.6731 9.20889 7.2436 8.8264L7.2486 8.8309C6.8491 8.4609 6.5066 8.0374 6.2301 7.5704L6.2161 7.5444C6.1081 7.3589 6.2046 7.2584 6.2971 7.1659C6.3806 7.0829 6.4831 6.9489 6.5756 6.8409C6.6486 6.7514 6.7111 6.6489 6.7586 6.5389L6.7616 6.5304C6.7831 6.4869 6.7956 6.4364 6.7956 6.3824C6.7956 6.3169 6.7771 6.2559 6.7451 6.2039L6.7461 6.2054C6.6991 6.1124 6.3281 5.1984 6.1736 4.8264C6.0226 4.4644 5.8691 4.5139 5.7556 4.50789C5.6476 4.50289 5.5236 4.50189 5.3996 4.50189C5.2021 4.5069 5.0266 4.5959 4.9056 4.7334L4.9051 4.7344C4.5041 5.11489 4.2551 5.65139 4.2551 6.24589C4.2551 6.25889 4.2551 6.2724 4.2556 6.2854V6.2834C4.3211 7.0169 4.5961 7.6754 5.0191 8.2119L5.0131 8.2044C5.8151 9.3939 6.8841 10.3454 8.1386 10.9864L8.1856 11.0079C8.4596 11.1319 8.8106 11.2644 9.1696 11.3779L9.2441 11.3984C9.4651 11.4684 9.7196 11.5089 9.9836 11.5089C10.1351 11.5089 10.2841 11.4954 10.4281 11.4699L10.4126 11.4719C10.9471 11.3604 11.3906 11.0379 11.6611 10.5974L11.6656 10.5889C11.7481 10.4059 11.7961 10.1924 11.7961 9.9679C11.7961 9.8754 11.7881 9.78489 11.7726 9.69689L11.7741 9.7064C11.7281 9.62889 11.6041 9.5829 11.4181 9.4894L11.4191 9.48839Z" fill="black"/>
</g>
<defs>
<clipPath id="clip0_295_273">
<rect width="16" height="16" fill="white"/>
</clipPath>
</defs>
</svg>
